<svg width="640px" height="640px" viewBox="0 0 200 200" xmlns="http://www.w3.org/2000/svg">
  <path fill="#FECE53" d="M27.2,-45.9C36.3,-41.8,45.4,-36.7,49.9,-28.8C54.4,-21,54.2,-10.5,57.4,1.8C60.7,14.2,67.2,28.4,64.1,38.7C61.1,49.1,48.5,55.6,36.2,60.1C23.9,64.6,12,67,-1.1,68.9C-14.1,70.7,-28.2,71.9,-40.7,67.6C-53.3,63.3,-64.3,53.4,-70.2,41.2C-76.2,29,-77.1,14.5,-77,0C-77,-14.4,-76,-28.8,-70.7,-42.2C-65.4,-55.6,-55.9,-68,-43.4,-70.1C-30.9,-72.1,-15.5,-63.9,-3.2,-58.3C9.1,-52.8,18.1,-49.9,27.2,-45.9Z" transform="translate(100 100)" />
</svg>